#format: frame checksums
#version: 2
#hash: MD5
#tb 0: 1/15
#media_type 0: video
#codec_id 0: rawvideo
#dimensions 0: 160x450
#sar 0: 0/1
#tb 1: 1/44100
#media_type 1: audio
#codec_id 1: pcm_s16le
#sample_rate 1: 44100
#channel_layout_name 1: stereo
#stream#, dts,        pts, duration,     size, hash
0,          0,          0,        1,   216000, 3440ea09fa3e309914a39185ccc639b1
1,          0,          0,    22050,    88200, 5529b797fc4381c0210ddb0d5fdd909c
0,          1,          1,        1,   216000, d481e3227bc793e8fbdfd1771946dbd0
0,          2,          2,        1,   216000, cf32f7887cd380b4d6c1837c2cccedb0
0,          3,          3,        1,   216000, 7e6561bf53b7e92ae19225e426998451
0,          4,          4,        1,   216000, 44c2ae7154ec3b6c619b30d1f42bd239
0,          5,          5,        1,   216000, f57d8d3c9ad0c0b5eed0cded691f81f8
0,          6,          6,        1,   216000, d41e4fcec93bd4e7625fa4d5e22c78b3
0,          7,          7,        1,   216000, de28b38b60683e28a4b2bd47dcbf9ed5
1,      22050,      22050,    22050,    88200, d55999b8c0c70b372b5b0f765a322713
0,          8,          8,        1,   216000, 3fad6e93f619921eb6e6a1d2247cea58
0,          9,          9,        1,   216000, f14726c87f8b3325dcc5da3f59cfbc73
0,         10,         10,        1,   216000, a52155a1403f5ad3831b4e126c5f34a1
0,         11,         11,        1,   216000, 9e902e4ef4077c8fbbd827b0ace9510f
0,         12,         12,        1,   216000, 961798b7156b6e7c8a30fccd2f26a09e
0,         13,         13,        1,   216000, a8611bf2c922ccd64c9f1e3b82277326
0,         14,         14,        1,   216000, 51257d09f581e856f970b209655a2186
0,         15,         15,        1,   216000, 244374071412529d0db7816398343c99
1,      44100,      44100,    22050,    88200, fb744894ab2a99dc1617bbb98cda65e2
0,         16,         16,        1,   216000, a25f7dfcd80b59df2bc12369b0dfb549
0,         17,         17,        1,   216000, fcb50431cd9ea32f7c39104a065555a4
0,         18,         18,        1,   216000, c0fb315f444620500fec94603fd98003
0,         19,         19,        1,   216000, e8eef93a01e65cfecdcc775125c80f56
0,         20,         20,        1,   216000, 9b793ba8f5d1d7ee5886efe7f94f77dc
0,         21,         21,        1,   216000, d5d2ecfc390d544bb03e87160004e0bb
0,         22,         22,        1,   216000, 359b8efb5e53a4c045d0235a1320789e
1,      66150,      66150,    22050,    88200, ca36b7b462eadcadf17a64cd1e3dcf4d
0,         23,         23,        1,   216000, 6a4a3b5128b0260e7f24858d013cb80b
0,         24,         24,        1,   216000, f8d36f10419f20f179e1cbcc467299fa
0,         25,         25,        1,   216000, 65337d3ca76ef6680f0f542274f22e6e
0,         26,         26,        1,   216000, 8ee84894608284bde389f961781ec5fa
0,         27,         27,        1,   216000, e92a61e5339c1ce64879245dd235dca4
0,         28,         28,        1,   216000, 6a3bacb441ce45c21f7fd76cc0a8d7da
0,         29,         29,        1,   216000, 3a91bb83eb456dc198a4478192f43f2e
0,         30,         30,        1,   216000, 49f7eeaff4b051eebd5c468a4edeba2a
1,      88200,      88200,    22050,    88200, f7d9a204d00946cd955728bd1f00fd74
0,         31,         31,        1,   216000, 4a81d23364bd21670b7385302be84afa
0,         32,         32,        1,   216000, 88f98aac14718555ec1cd0bb450c6d97
0,         33,         33,        1,   216000, 243c3c1526e4e48a840bf8ff6e3108fb
0,         34,         34,        1,   216000, f7e11f444aae09bccf535492e93503b7
0,         35,         35,        1,   216000, 6f373b09a80589b384333b9da0b87a56
0,         36,         36,        1,   216000, 8499f020080fc6cc831cf5bc68a3fe9a
0,         37,         37,        1,   216000, 3f6e8074a971c73572b3f290d04a0749
1,     110250,     110250,    22050,    88200, 5c78976882b82a38298f68bc23515b25
0,         38,         38,        1,   216000, 08cc9df2f7c719186934ddb3ecfb6d5d
0,         39,         39,        1,   216000, 26f81c118a0e63d007a04fd7cde88065
0,         40,         40,        1,   216000, 78a139f796c3dbd12e9fc331bfaf77d9
0,         41,         41,        1,   216000, ad3c778b6279e7348eb5b431d78a3170
0,         42,         42,        1,   216000, a0901a765e43017c844266e720866543
0,         43,         43,        1,   216000, 92c53b5f9002763d427d726c95f3ce40
0,         44,         44,        1,   216000, 76382118073514be5855b7ad555dbf88
0,         45,         45,        1,   216000, 374ac444487e512868e961d44b6d280a
1,     132300,     132300,    22050,    88200, 92ba7b4bc94367b8557899bf94b2fc8c
0,         46,         46,        1,   216000, 7a187d448f43e1a264251d216a96d29e
0,         47,         47,        1,   216000, de3259d26fca1721a9bc88a8adef875c
0,         48,         48,        1,   216000, 7959d3e4b14aeca38a7c71ede7e1564b
0,         49,         49,        1,   216000, 0ecd1dd3c349bfe3277194becfba77f9
0,         50,         50,        1,   216000, a3a21c652cc146d00633281cca381267
0,         51,         51,        1,   216000, fc365122aff3885115f6acb0ebff1db7
0,         52,         52,        1,   216000, 8aa41efbf253d84a550ad78adb692a21
1,     154350,     154350,    22050,    88200, a818c9283a12e1a610f604ade87e71bb
0,         53,         53,        1,   216000, ac3c58e4b7db82654a3efeeb2d8a709e
0,         54,         54,        1,   216000, 83ab8019ba8895448c1c17bf0e43411d
0,         55,         55,        1,   216000, a37e39e4cccbc4240696e619f4a5a744
0,         56,         56,        1,   216000, fab53e5ac74b671b087bfa712c89cf42
0,         57,         57,        1,   216000, 1ddbb1bc6b126d008bbb7cbb4eb03e09
0,         58,         58,        1,   216000, cfae582a202180c2ea9450b07fd0668a
0,         59,         59,        1,   216000, 4c86f7a5766d743b0f66d60127004ad8
0,         60,         60,        1,   216000, 73b46d0526dad12c298082a3b1241a8c
1,     176400,     176400,    22050,    88200, aacc011dc08d0e8ce250e772dc98814b
0,         61,         61,        1,   216000, 4d6a95557f7aea0dc6c697b18a4260c1
0,         62,         62,        1,   216000, 08976f4c50517f6601bdfa4e263fedbe
0,         63,         63,        1,   216000, 0ae450f299d3b6663f77324c4ed0b7e7
0,         64,         64,        1,   216000, 25d110c0ad00ae0286a58a9294cb359b
0,         65,         65,        1,   216000, b328f8f75385f0e6f5b30460b3a5aef5
0,         66,         66,        1,   216000, 64245cda6a361cb18ab39cd3d67e2e89
0,         67,         67,        1,   216000, 25475b05c7ad03e8f5239c5ebef1042a
1,     198450,     198450,    22050,    88200, 142a84f5d34baca40e9b045e292ebc53
0,         68,         68,        1,   216000, dbf87ce58d63511ceea7ae559bc6ec77
0,         69,         69,        1,   216000, df2d45ad5fae4f2547f463867e73b77c
0,         70,         70,        1,   216000, d502c919a01b1d9503f4035eaa6d75bf
0,         71,         71,        1,   216000, a7e9c21f80f4752ae35595f4cd1df4d8
0,         72,         72,        1,   216000, 50d2bf13e7c084cb1ab8e15709a05734
0,         73,         73,        1,   216000, 171923e58caa7be006f6eaef8e09b71e
0,         74,         74,        1,   216000, 15a50db2c26c8d6886de756c86b32d7b
0,         75,         75,        1,   216000, 88bf4a3cd3fbbb3bca3085de7ec0b474
1,     220500,     220500,    22050,    88200, adb0443d2083991ad4e637305d09ecdd
0,         76,         76,        1,   216000, f4836049ea878b5dd29a3add8a3094cc
0,         77,         77,        1,   216000, 9a33ec052acbaf4743942fca3094bbaf
0,         78,         78,        1,   216000, 77f129562048b1464ffe484ccb59a987
0,         79,         79,        1,   216000, b21338dbe75769a40cadbef8489de4f1
0,         80,         80,        1,   216000, 1fe3fe7b477bdf23cc06f46f19d5b626
0,         81,         81,        1,   216000, 6fb21e888c500e1683afcac15830badb
0,         82,         82,        1,   216000, 7695dbb9cf1e747a372b0699301cb279
1,     242550,     242550,    22050,    88200, a55d33c9a289586e1469e8de85e692ff
0,         83,         83,        1,   216000, 8400ba745182b2bcc47ae21abf572386
0,         84,         84,        1,   216000, 1904dd536d2e01e04ccd6d1c3a7a0916
0,         85,         85,        1,   216000, 3c869f31c814f36e104039bf156c8bea
0,         86,         86,        1,   216000, 4afb69026f7d7e999efcc8a4c6778609
0,         87,         87,        1,   216000, 4522065f800363aee0692be1c4939193
0,         88,         88,        1,   216000, db476101ff04dcac98dc514f88d2acb4
0,         89,         89,        1,   216000, a48f7230674de041437483e326cda3d2
0,         90,         90,        1,   216000, 7f026fc673c135ef0b2afc2acce086c3
1,     264600,     264600,    22050,    88200, 53ef4aa55f869ec975c0a0bd4818af54
0,         91,         91,        1,   216000, 8798db84937c1699f771aae18b1ea766
0,         92,         92,        1,   216000, e62f0e0e5da8b8008bdea9ef88eaa7ac
0,         93,         93,        1,   216000, 05ffe85ba6baf8ef97ac20b95b45bc80
0,         94,         94,        1,   216000, 4991cf49024def89f6b8ccb56047b2d0
0,         95,         95,        1,   216000, 340576447e33f100883b3c78630492cc
0,         96,         96,        1,   216000, c419d15577e1579bd2b9f6ce0c20a88d
0,         97,         97,        1,   216000, 5da84346a195f40c386ca8b58744b730
1,     286650,     286650,    22050,    88200, 35ac109af5f6f3c0e06fec5f6db7f3dd
0,         98,         98,        1,   216000, 98d05d2c945250bb9f16d8cbfc346bb4
0,         99,         99,        1,   216000, 921b9fd3cd70aa5800ad99a599927c5a
0,        100,        100,        1,   216000, c81e3fb7841971735742fe4ac4a55238
0,        101,        101,        1,   216000, 887eab92937b12a7e31ec00b1e825e0a
0,        102,        102,        1,   216000, 0fe282d4b79effb26c03cc643fd2321a
0,        103,        103,        1,   216000, 15a15cb2af08f6f716bb35f18bbb09d8
0,        104,        104,        1,   216000, 303dfaf3117a486ab746e5b69ab90cb1
0,        105,        105,        1,   216000, 3470cc8aaf1c754efc099d6c7da06183
1,     308700,     308700,    22050,    88200, bab3eb3e6135d6660752f32eb18fdd6d
0,        106,        106,        1,   216000, 993601c02b3a9b25e9bf1b213cdd7f69
0,        107,        107,        1,   216000, 945274b5d8147ffeae12a3b31e41963d
0,        108,        108,        1,   216000, 9f3e176cb9250b84c17294d612754d1b
0,        109,        109,        1,   216000, 890da55bb3a9a7b85aaa2c7374b4d670
0,        110,        110,        1,   216000, 4a6eb270c388d43d49709c72886c9ed9
0,        111,        111,        1,   216000, 5fb0cab64f932e457b4119c2e2d8ebab
0,        112,        112,        1,   216000, dffc28b8dad044a230773fba50fba2b7
1,     330750,     330750,    22050,    88200, 1416e85343df311ec766517ee789229e
0,        113,        113,        1,   216000, f90f04b7be1a6c7d0fa3164dea0c8537
0,        114,        114,        1,   216000, 2d010abf58f2eeadd4532c83d05513ab
0,        115,        115,        1,   216000, d92df4dfde79e55883c29484af02fcc9
0,        116,        116,        1,   216000, 64795f16635ad83074e6a9f8a794b3af
0,        117,        117,        1,   216000, d5e592dd91e0bedaf3f704f7ffc21bbd
0,        118,        118,        1,   216000, 55ba4b114350b66fad582f7adb6cb123
0,        119,        119,        1,   216000, 0e9b153407c08ae2d19de51fa1ce290d
0,        120,        120,        1,   216000, c3cee923e94c28f0345f54eb00d7b667
1,     352800,     352800,     5880,    23520, 7188231c710b4e2ef200b8ffd3ed7508
0,        121,        121,        1,   216000, c3cee923e94c28f0345f54eb00d7b667
